<svg width="160" height="128" viewBox="0 0 160 128" fill="none" xmlns="http://www.w3.org/2000/svg">
<path d="M12.0981 4.57921C11.9237 4.86268 11.8147 7.28313 11.5313 18.3823C11.4005 23.2886 11.2479 27.4317 11.2043 27.5843C11.0082 28.064 10.485 28.1513 10.0708 27.737C9.72206 27.3881 9.65666 26.3632 9.39508 16.2453C9.24249 10.1179 9.06811 5.05894 9.00271 4.97171C8.95911 4.86268 8.63214 4.79727 8.28337 4.79727C7.49862 4.79727 7.54222 4.60102 7.10625 9.70357C6.23432 19.756 6.01634 23.7029 6.01634 30.31C5.99454 37.0044 6.01634 37.2007 6.4959 38.2474C7.04086 39.4685 8.78473 41.6491 10.5722 43.3935C11.2479 44.0477 11.8801 44.7891 11.9891 45.029C12.1417 45.4651 12.0763 48.9322 11.4441 68.6882C11.2697 74.5104 10.9646 84.4538 10.7902 90.8211C10.6158 97.1666 10.3542 105.126 10.2452 108.484C10.1144 112.3 10.0926 114.851 10.2234 115.287C11.0518 118.166 13.4496 119.648 15.8038 118.754C17.0027 118.275 18.158 116.988 18.5286 115.658C18.812 114.677 18.703 108.091 18.0926 89.7308C17.9618 86.2419 17.6785 76.691 17.4387 68.4702C17.1989 60.2494 16.9591 51.6143 16.8937 49.2811L16.7629 45.029L18.7466 42.9574C19.8147 41.8235 21.1444 40.2535 21.6894 39.4685C22.5395 38.2474 22.6921 37.8112 22.8883 36.4157C23.3242 33.0576 23.0627 25.1857 22.1253 13.7376C21.3624 4.31754 21.4496 4.84088 20.6648 4.68824C20.3161 4.60102 19.9673 4.57921 19.9237 4.64463C19.8583 4.71004 19.6839 9.87802 19.5095 16.1581C19.2479 26.5376 19.2043 27.5843 18.8556 27.8242C18.267 28.2603 17.7221 27.846 17.5695 26.8865C17.5041 26.4286 17.3951 22.3291 17.3079 17.7717C17.2425 13.2143 17.1117 8.35161 17.0245 6.97785C16.8937 4.49199 16.8937 4.47018 16.3488 4.47018H15.8038L15.673 8.83134C15.5858 11.23 15.5204 15.831 15.4768 19.0801C15.455 22.3073 15.3678 25.6 15.2806 26.385C15.1499 27.7152 15.1063 27.8024 14.5831 27.8678C14.2779 27.9114 13.9073 27.8024 13.7766 27.6497C13.624 27.4535 13.515 24.03 13.4278 17.4446C13.2534 5.40783 13.188 4.36115 12.643 4.36115C12.4251 4.36115 12.1635 4.47018 12.0981 4.57921Z" fill="black"/>
<path d="M140.883 4.77544C137.548 6.32365 135.259 16.0054 134.082 33.6899C133.624 40.3625 133.341 55.1032 133.58 59.5952C133.798 63.8037 133.82 63.9564 134.496 65.3301C134.975 66.3332 135.433 66.9219 136.044 67.3144L136.894 67.8814V69.5386C136.894 70.4545 136.741 75.9932 136.567 81.8807C135.826 107.023 135.738 112.213 136.022 113.412C136.414 115.047 137.918 116.574 139.357 116.77C141.406 117.075 143.39 115.396 143.826 112.954C144 111.995 143.76 100.546 143.128 78.6098L142.801 67.4889L143.302 66.9437C143.586 66.6385 143.935 66.1805 144.065 65.9189C144.327 65.3955 144.349 42.9792 144.109 19.0364L143.978 5.66947L143.433 5.14614C142.67 4.38293 141.951 4.29571 140.883 4.77544Z" fill="black"/>
<path d="M72.2616 11.1209C66.2888 11.8187 61.079 13.3233 55.8038 15.94C41.3297 23.0923 31.3024 36.9172 29.1226 52.6828C27.9455 61.1216 28.9482 69.7131 31.9782 77.4105C38.5613 94.1138 53.9945 105.911 71.9128 107.96C74.9428 108.288 82.703 108.091 85.3188 107.612C95.3678 105.758 103.695 101.593 110.801 94.8552C118.539 87.5284 123.531 78.0647 125.384 67.2708C126.016 63.4766 126.082 56.3025 125.493 52.5519C122.986 36.6119 113.46 23.3976 99.2697 16.1799C94.9101 13.9339 91.0082 12.6473 85.7765 11.6661C83.2915 11.1863 81.9182 11.0773 78.3651 11.0119C75.9673 10.9683 73.2207 11.0119 72.2616 11.1209ZM82.6812 26.8211C96.6321 29.1979 107.422 39.8173 110.016 53.7076C110.539 56.5206 110.539 62.8225 110.016 65.5264C109.384 68.71 108.599 71.0214 107.139 74.0306C103.346 81.8807 97.0681 87.6374 88.9373 90.6903C71.2152 97.3192 51.5967 87.8337 45.6894 69.7567C41.7439 57.6763 45.1226 44.462 54.4305 35.5216C61.8855 28.3911 72.5667 25.0766 82.6812 26.8211Z" fill="black"/>
<path d="M73.5695 28.3694C68.6649 28.9799 63.5422 30.9206 59.2916 33.8208C57.1771 35.26 53.4278 38.9888 51.8147 41.2566C44.9918 50.8293 44.0109 63.2586 49.2861 73.7472C54.5831 84.3012 65.3733 90.9302 77.2534 90.9302C92.4469 90.9302 105.199 80.3762 108.163 65.3084C108.839 61.9503 108.817 56.8913 108.142 53.6423C106.79 47.2096 103.956 41.9108 99.4877 37.4188C95.1063 33.014 89.6785 30.092 83.4441 28.7837C81.0245 28.2603 76.0545 28.0641 73.5695 28.3694Z" fill="black"/>
</svg>
