<svg width="160" height="133" viewBox="0 0 160 133" fill="none" xmlns="http://www.w3.org/2000/svg">
<path d="M8.4667 9.55036C8.22226 9.85915 7.28893 20.1815 6.88893 27.4601C6.73337 29.8864 6.6667 34.0991 6.71115 36.8341C6.77782 41.6424 6.80004 41.8409 7.35559 43.0099C7.95559 44.2892 8.68893 45.2376 11.1556 47.9285L12.6667 49.5607L12.3334 61.0079C12.1556 67.294 11.8445 77.2635 11.6667 83.1525C11.0889 101.834 10.8667 110.502 10.8223 114.473C10.7778 118.112 10.8 118.399 11.2889 119.369C12.3778 121.553 14.8445 122.81 16.8 122.192C18.6223 121.619 20 120.075 20.4445 118.156C20.6 117.406 20.5778 114.031 20.3334 106.135C20.1556 100.114 19.8445 90.0121 19.6667 83.7039C19.4889 77.3958 19.1778 67.1396 19 60.9197L18.6445 49.6048L20.8889 47.1344C22.2889 45.5905 23.4 44.1348 23.8445 43.2305L24.5556 41.8189L24.6445 36.9444C24.6667 34.2756 24.6 30.0628 24.4667 27.5704C24.1334 21.9461 23.1556 10.0797 22.9778 9.59448C22.8889 9.37391 22.6223 9.26363 22.2445 9.30774C21.6889 9.37391 21.6667 9.41803 21.6889 10.9179C21.7111 11.756 21.9334 15.1306 22.2 18.417C22.9111 27.2175 23.1111 31.1656 23.1111 35.9519C23.1111 42.1718 22.9556 42.5688 19.2889 46.4728C18.2223 47.6197 17.2667 48.7887 17.2 49.1195C17.1111 49.4283 17.1111 51.5898 17.2 53.9058C17.2667 56.2217 17.4889 63.3679 17.6667 69.8084C17.8445 76.2268 18.1556 86.5492 18.3334 92.747C19.1778 120.295 19.2223 118.332 17.8 119.744C16.1334 121.398 14 121.001 12.8223 118.818C12.2445 117.715 12.2445 118.443 12.8889 96.3864C13.1334 88.2034 13.4223 78.0134 13.5556 73.7786C13.6667 69.5217 13.8889 62.3754 14.0445 57.8759C14.1778 53.3764 14.2223 49.4283 14.1334 49.0975C14.0445 48.7666 13.2 47.6859 12.2667 46.6933C10.1334 44.4656 9.22226 43.2966 8.73337 42.1938C7.88893 40.297 8.13337 29.9305 9.37782 15.6379C9.64448 12.55 9.80004 9.8371 9.71115 9.63859C9.53337 9.19746 8.82226 9.15335 8.4667 9.55036Z" fill="black"/>
<path d="M13.0445 9.41804C12.9556 9.48421 12.8889 14.7998 12.8889 21.2182C12.8889 31.8053 12.9111 32.886 13.2445 33.0184C13.4445 33.0845 13.7778 33.0625 13.9778 32.9301C14.2889 32.7316 14.3334 31.5185 14.4 21.2844C14.4222 13.0353 14.3778 9.77094 14.2 9.57244C13.9334 9.24159 13.2889 9.15336 13.0445 9.41804Z" fill="black"/>
<path d="M17.2667 9.39601C17.0445 9.61658 17.0889 32.467 17.3112 32.8199C17.4 32.9963 17.7334 33.0846 18.0223 33.0405L18.5556 32.9743V21.1741V9.37396L18 9.30779C17.6889 9.26367 17.3556 9.30779 17.2667 9.39601Z" fill="black"/>
<path d="M141.089 9.70479C137.933 11.359 135.644 18.0642 134.133 29.9967C132.6 41.9733 131.933 65.1545 133 69.1026C133.444 70.801 134.444 72.1905 135.711 72.9184L136.711 73.5139L136.578 77.837C136.489 80.2191 136.289 86.2846 136.111 91.3134C135.289 115.333 135.244 118.575 135.644 119.656C137 123.119 140.911 124.067 143.622 121.553C145.133 120.185 145.289 119.193 145.089 113.149C144.978 110.414 144.711 101.481 144.467 93.2985C144.222 85.1156 143.956 77.2414 143.867 75.8078L143.733 73.2272L144.644 72.2346L145.556 71.2421L145.533 53.0015C145.511 42.9438 145.444 29.2909 145.356 22.6519L145.222 10.5429L144.489 9.9033C143.622 9.13132 142.333 9.0431 141.089 9.70479ZM143.578 12.7706C143.667 13.7852 143.8 27.2396 143.889 42.657L144.044 70.6907L143.111 71.6612L142.156 72.6096L142.311 77.1753C142.378 79.6676 142.644 87.6741 142.889 94.9527C143.133 102.231 143.356 110.679 143.4 113.745C143.444 119.06 143.422 119.303 142.978 119.921C142.133 121.045 141.111 121.575 140.022 121.464C138.822 121.332 138.044 120.781 137.356 119.568L136.844 118.619L137.311 104.481C137.556 96.6952 137.889 86.4169 138.044 81.6307L138.289 72.9404L137.711 72.4773C137.4 72.2126 136.756 71.7494 136.267 71.4406C134.422 70.1834 134.222 69.0144 134.222 58.5817C134.222 43.5172 135.156 31.2539 137.022 22.1005C138.444 15.0865 140.689 10.6532 142.733 10.8517L143.444 10.9179L143.578 12.7706Z" fill="black"/>
<path d="M74.1111 15.7923C69.6445 16.1673 64.6667 17.1819 60.7556 18.5494C58.0445 19.4758 52.5111 22.1887 50.1778 23.7547C39.9778 30.526 32.7778 40.2308 29.5778 51.5237C28.1556 56.5967 27.8889 58.6258 27.8889 65.0663C27.8889 71.4627 28.1334 73.3374 29.5556 78.3442C34.2223 94.8424 47.3334 107.856 63.8889 112.465C68.9556 113.855 71.0889 114.142 77.2223 114.12C82.0889 114.12 83.1334 114.076 85.6667 113.612C101.6 110.745 114.956 100.776 121.889 86.5713C129.556 70.9112 128.333 52.3839 118.667 37.8487C110.956 26.2471 98.4667 18.3509 84.6223 16.3217C81.7111 15.8806 76.2889 15.6159 74.1111 15.7923ZM86.0223 18.395C93.6223 19.8287 100.911 23.1592 107.089 27.9895C109.156 29.5996 113 33.4154 114.689 35.5108C118.889 40.7822 122 47.1124 123.644 53.7514C124.622 57.7436 124.978 60.8535 124.978 65.2869C124.933 72.7419 123.4 79.3147 120.089 85.9537C107.911 110.48 77.6667 119.7 53.6223 106.179C46.9778 102.452 40.9556 96.6952 36.7334 90.0341C28.8889 77.6384 27.4 61.5373 32.8 47.8182C38.6223 33.0184 51.7334 21.9461 67.3334 18.6376C71.0889 17.8215 73.1556 17.6671 78.1111 17.7333C82.2223 17.7995 83.4667 17.9098 86.0223 18.395Z" fill="black"/>
<path d="M73.7778 31.5627C68.1333 32.2023 63.1333 33.9889 58.5555 37.0327C44.5778 46.2743 39.5111 64.2944 46.6444 79.2927C51.2444 88.9534 59.8 95.6585 70.4444 97.9745C73.7555 98.6803 79.3333 98.7685 82.8667 98.173C96.6889 95.835 107.311 85.7111 110.467 71.9038C110.933 69.8746 111 69.0365 111 65.0663C111 61.4932 110.911 60.1478 110.578 58.67C109.578 54.0161 107.822 49.8695 105.311 46.0978C103.378 43.2305 99.2667 39.1501 96.3333 37.2091C89.4444 32.6876 81.5111 30.7025 73.7778 31.5627ZM84.4889 34.033C95.4889 36.6357 104.244 44.6642 107.778 55.3836C108.844 58.6038 109.2 60.9639 109.2 64.9561C109.2 69.0585 108.822 71.4847 107.644 75.0138C104.044 85.7552 95.4222 93.475 84.1111 96.0776C81.7111 96.629 81.0444 96.6952 77.3333 96.6952C72.7778 96.6952 70.6889 96.3643 66.8222 95.041C56.8889 91.6663 49.0444 83.2408 46.3778 73.1169C45.4889 69.7643 45.2444 67.3823 45.4 63.6327C45.5555 60.1478 45.9555 57.8539 47 54.8101C49.7111 46.7595 55.9333 39.8559 63.6667 36.2828C66.7778 34.8491 68.7111 34.2756 73.3333 33.4375C73.6444 33.3934 75.7333 33.3713 78 33.4154C81.4667 33.4595 82.4889 33.5698 84.4889 34.033Z" fill="black"/>
</svg>
